<svg xmlns="http://www.w3.org/2000/svg" height="800" width="1200" viewBox="-171.9 -210 1489.8 1260"><g fill="none"><path d="M563.005 0C400.079 0 268 132.07 268 294.995 268 457.921 400.079 590 563.005 590S858 457.921 858 294.995 725.93 0 563.005 0" fill="#FBA60B"/><path fill="#FFFFFE" d="M562.49 490c-15.746 0-28.49-12.748-28.49-28.48 0-15.772 12.744-28.52 28.49-28.52 15.747 0 28.51 12.748 28.51 28.52 0 15.732-12.763 28.48-28.51 28.48M641 296.492c0 30.899-21.795 57.606-52.169 67.052V416h-52.217v-52.456C506.231 354.098 485 327.39 485 296.492V130h51.614v166.492c0 13.078 12.05 23.577 26.396 23.577 14.335 0 25.821-10.499 25.821-23.577V130H641v166.492"/><path d="M700 740.759C700 761.297 682.945 778 661.997 778 641.037 778 624 761.297 624 740.759h25.419c0 6.842 5.597 12.605 12.578 12.605 6.98 0 12.853-5.763 12.853-12.605 0-2.74-1.115-5.746-2.79-7.667l-39.112-45.482c-5.586-6.297-8.948-15.06-8.948-24.369C624 642.703 641.037 626 661.997 626 682.945 626 700 642.703 700 663.241h-25.15c0-6.842-5.872-12.326-12.853-12.326-6.98 0-12.578 5.484-12.578 12.326 0 3.012.84 5.751 2.527 7.667l39.112 45.482c5.866 6.57 8.942 15.06 8.942 24.369m167.855-53.963c-6.956 0-12.522 5.012-12.522 11.279v11.524h25.049v-11.524c0-6.267-5.566-11.279-12.527-11.279zm-12.522 45.605v11.273c0 6.267 5.566 11.524 12.522 11.524 6.961 0 12.806-5.257 12.806-11.524H906c0 18.79-16.994 34.326-38.145 34.326C846.976 778 830 762.464 830 743.674v-45.599C830 679.279 846.976 664 867.855 664 889.006 664 906 679.28 906 698.075v34.326zm85.993 10.749c0 6.225 5.856 11.198 12.799 11.198 6.973 0 12.538-4.973 12.538-11.199v-11.448h-12.538c-6.943 0-12.8 5.222-12.8 11.448zM954.125 777C933.26 777 916 761.815 916 743.15c0-18.667 17.26-33.851 38.125-33.851h12.538V697.85c0-6.226-5.565-11.205-12.538-11.205-6.943 0-12.8 4.979-12.8 11.205H916c0-18.671 17.26-33.85 38.125-33.85C975.008 664 992 679.179 992 697.85v45.3c0 18.665-16.992 33.85-37.875 33.85zm132.823-114c20.987 0 38.052 15.179 38.052 33.85V776h-25.469v-79.15c0-6.225-5.593-11.447-12.582-11.447-6.99 0-12.864 5.222-12.864 11.448V776h-25.451v-79.15c0-6.225-5.599-11.447-12.588-11.447-6.996 0-12.875 5.222-12.875 11.448V776H998v-79.15c0-18.671 17.06-33.85 38.046-33.85 9.789 0 18.73 3.232 25.451 8.466 6.715-5.234 15.662-8.466 25.451-8.466m-290.671 8.316v-7.14H770V777h26.277l-.129-72.928C796.101 688.223 823 687.03 823 687.03V664s-19.032 1.766-26.723 7.316M586.58 666H612v80.336c0 14.91-10.624 27.804-25.42 32.354V804h-25.425v-25.31C546.34 774.14 536 761.245 536 746.336V666h25.155v80.336c0 6.308 5.863 11.378 12.845 11.378 6.988 0 12.58-5.07 12.58-11.378V666M589 825.997c0 7.739-6.271 14.003-14.003 14.003-7.726 0-13.997-6.264-13.997-14.003 0-7.733 6.271-13.997 13.997-13.997 7.732 0 14.003 6.264 14.003 13.997M38.009 777C17.048 777 0 760.25 0 739.648v-75.006C0 644.045 17.048 627 38.009 627 58.964 627 76 644.045 76 664.642H50.584c0-6.871-5.586-12.636-12.575-12.636-6.99 0-12.852 5.765-12.852 12.636v75.006c0 6.871 5.863 12.346 12.852 12.346s12.575-5.475 12.575-12.346H76C76 760.25 58.964 777 38.009 777m86.135 1C102.99 778 86 762.864 86 743.972V665h25.345v78.972c0 6.214 5.56 11.443 12.799 11.443 6.957 0 12.529-5.229 12.529-11.443V665H162v78.972C162 762.864 145.027 778 124.144 778M255 664h-24v113h24zm-58.21 7.166v-6.997H172V777h24.79l-.127-73.731C196.628 687.74 222 686.566 222 686.566V664s-17.957 1.729-25.21 7.166m109.201 15.624c-6.983 0-12.575 5.03-12.575 11.285v45.587c0 6.273 5.592 11.547 12.575 11.547 6.99 0 12.564-5.274 12.564-11.547v-45.587c0-6.255-5.575-11.284-12.564-11.284zm0 91.21C285.036 778 268 762.726 268 743.662v-45.587c0-18.79 17.036-34.075 37.991-34.075S344 679.285 344 698.075v45.587C344 762.726 326.946 778 305.991 778zm86.141-68.402c20.89 0 37.868 15.283 37.868 34.075C430 762.705 413.021 778 392.132 778 370.98 778 354 762.705 354 743.673h25.345c0 6.523 5.56 11.516 12.787 11.516 6.975 0 12.523-4.993 12.523-11.516 0-6.26-5.548-11.27-12.793-11.27-20.883 0-37.862-15.295-37.862-34.076C354 679.283 370.979 664 392.132 664c20.89 0 37.868 15.283 37.868 34.327h-25.345c0-6.518-5.548-11.522-12.523-11.522-7.227 0-12.787 5.004-12.787 11.522 0 6.254 5.56 11.27 12.787 11.27M464 664h-24v113h24zm50.567 87.794H527V777h-12.433C493.837 777 477 760.099 477 739.304V626h24.866v38.302l25.134.035v24.548h-25.134v50.419c0 6.947 5.803 12.49 12.701 12.49m232 0H759V777h-12.433C725.837 777 709 760.099 709 739.304V626h24.866v38.302l25.134.035v24.548h-25.134v50.419c0 6.947 5.803 12.49 12.701 12.49m390.271-79.707h.857c.993 0 1.806-.359 1.806-1.236 0-.774-.525-1.293-1.665-1.293-.473 0-.806.057-.998.109zm-.045 4.79h-1.806v-8.446c.711-.16 1.71-.262 2.996-.262 1.467 0 2.127.262 2.703.62.423.36.761 1.031.761 1.857 0 .929-.666 1.646-1.613 1.96v.102c.756.307 1.184.922 1.421 2.056.243 1.287.378 1.805.57 2.113h-1.952c-.231-.308-.372-1.082-.615-2.062-.135-.923-.61-1.338-1.613-1.338h-.852zm-4.801-4.431c0 3.759 2.567 6.749 6.081 6.749 3.425 0 5.936-2.99 5.936-6.692 0-3.765-2.511-6.806-5.986-6.806-3.464 0-6.031 3.041-6.031 6.749zm14.008 0c0 4.795-3.464 8.554-7.977 8.554-4.463 0-8.023-3.759-8.023-8.554 0-4.687 3.56-8.446 8.023-8.446 4.513 0 7.977 3.759 7.977 8.446z" fill="#221D1E"/></g></svg>