<?xml version="1.0" encoding="UTF-8"?>
<svg xmlns="http://www.w3.org/2000/svg" xmlns:xlink="http://www.w3.org/1999/xlink" width="800pt" height="800pt" viewBox="0 0 800 800" version="1.1">
<defs>
<clipPath id="clip1">
  <path d="M 679 318 L 771 318 L 771 528 L 679 528 Z M 679 318 "/>
</clipPath>
<clipPath id="clip2">
  <path d="M 740.265625 318.027344 L 740.265625 413.125 L 740.265625 413.117188 C 740.265625 420.855469 733.570313 428.097656 725.199219 428.097656 C 716.835938 428.097656 709.804688 420.855469 709.804688 413.125 L 709.804688 318.027344 L 679.667969 318.027344 L 679.667969 413.125 C 679.667969 414.285156 679.71875 415.445313 679.808594 416.601563 C 679.902344 417.757813 680.035156 418.910156 680.214844 420.054688 C 680.394531 421.203125 680.621094 422.339844 680.886719 423.46875 C 681.152344 424.597656 681.464844 425.71875 681.816406 426.824219 C 682.167969 427.929688 682.5625 429.019531 682.996094 430.09375 C 683.433594 431.171875 683.910156 432.226563 684.425781 433.265625 C 684.945313 434.304688 685.5 435.324219 686.09375 436.320313 C 686.6875 437.316406 687.320313 438.289063 687.992188 439.238281 C 688.660156 440.1875 689.363281 441.105469 690.105469 442.003906 C 690.84375 442.894531 691.617188 443.761719 692.421875 444.597656 C 693.226563 445.433594 694.0625 446.234375 694.929688 447.007813 C 695.800781 447.777344 696.695313 448.515625 697.617188 449.21875 C 698.539063 449.917969 699.492188 450.585938 700.464844 451.214844 C 701.4375 451.847656 702.4375 452.4375 703.457031 452.992188 C 704.476563 453.546875 705.515625 454.058594 706.574219 454.53125 C 707.636719 455.007813 708.710938 455.441406 709.804688 455.832031 L 709.804688 481.433594 L 740.265625 481.433594 L 740.265625 455.816406 C 758.886719 449.828125 770.722656 431.382813 770.722656 413.125 L 770.722656 318.027344 Z M 709.160156 510.640625 C 709.160156 519.855469 716.367188 527.316406 725.257813 527.316406 L 725.257813 527.308594 C 734.136719 527.308594 741.34375 519.855469 741.34375 510.632813 C 741.34375 501.414063 734.144531 493.960938 725.25 493.960938 C 716.367188 493.960938 709.160156 501.414063 709.160156 510.640625 "/>
</clipPath>
<linearGradient id="linear0" gradientUnits="userSpaceOnUse" x1="83.783588" y1="14.490037" x2="105.710269" y2="29.256867" gradientTransform="matrix(7.279381,0,0,7.279381,29.275525,272.683539)">
<stop offset="0" style="stop-color:rgb(92.498779%,76.499939%,20.399475%);stop-opacity:1;"/>
<stop offset="0.0625" style="stop-color:rgb(92.498779%,76.499939%,20.399475%);stop-opacity:1;"/>
<stop offset="0.078125" style="stop-color:rgb(92.497253%,76.38855%,20.446777%);stop-opacity:1;"/>
<stop offset="0.0859375" style="stop-color:rgb(92.494202%,76.177979%,20.536804%);stop-opacity:1;"/>
<stop offset="0.09375" style="stop-color:rgb(92.492676%,75.978088%,20.622253%);stop-opacity:1;"/>
<stop offset="0.101563" style="stop-color:rgb(92.489624%,75.778198%,20.706177%);stop-opacity:1;"/>
<stop offset="0.109375" style="stop-color:rgb(92.486572%,75.578308%,20.791626%);stop-opacity:1;"/>
<stop offset="0.117188" style="stop-color:rgb(92.483521%,75.379944%,20.877075%);stop-opacity:1;"/>
<stop offset="0.125" style="stop-color:rgb(92.480469%,75.180054%,20.962524%);stop-opacity:1;"/>
<stop offset="0.132813" style="stop-color:rgb(92.478943%,74.980164%,21.047974%);stop-opacity:1;"/>
<stop offset="0.140625" style="stop-color:rgb(92.475891%,74.780273%,21.133423%);stop-opacity:1;"/>
<stop offset="0.148438" style="stop-color:rgb(92.472839%,74.580383%,21.218872%);stop-opacity:1;"/>
<stop offset="0.15625" style="stop-color:rgb(92.469788%,74.382019%,21.304321%);stop-opacity:1;"/>
<stop offset="0.164063" style="stop-color:rgb(92.466736%,74.182129%,21.389771%);stop-opacity:1;"/>
<stop offset="0.171875" style="stop-color:rgb(92.46521%,73.982239%,21.473694%);stop-opacity:1;"/>
<stop offset="0.179688" style="stop-color:rgb(92.462158%,73.782349%,21.559143%);stop-opacity:1;"/>
<stop offset="0.1875" style="stop-color:rgb(92.459106%,73.582458%,21.644592%);stop-opacity:1;"/>
<stop offset="0.195313" style="stop-color:rgb(92.456055%,73.382568%,21.730042%);stop-opacity:1;"/>
<stop offset="0.203125" style="stop-color:rgb(92.454529%,73.184204%,21.815491%);stop-opacity:1;"/>
<stop offset="0.210938" style="stop-color:rgb(92.451477%,72.984314%,21.90094%);stop-opacity:1;"/>
<stop offset="0.21875" style="stop-color:rgb(92.448425%,72.784424%,21.986389%);stop-opacity:1;"/>
<stop offset="0.226563" style="stop-color:rgb(92.445374%,72.584534%,22.071838%);stop-opacity:1;"/>
<stop offset="0.234375" style="stop-color:rgb(92.442322%,72.384644%,22.157288%);stop-opacity:1;"/>
<stop offset="0.242188" style="stop-color:rgb(92.440796%,72.186279%,22.241211%);stop-opacity:1;"/>
<stop offset="0.25" style="stop-color:rgb(92.437744%,71.986389%,22.32666%);stop-opacity:1;"/>
<stop offset="0.257813" style="stop-color:rgb(92.434692%,71.786499%,22.412109%);stop-opacity:1;"/>
<stop offset="0.265625" style="stop-color:rgb(92.431641%,71.586609%,22.497559%);stop-opacity:1;"/>
<stop offset="0.273438" style="stop-color:rgb(92.430115%,71.386719%,22.583008%);stop-opacity:1;"/>
<stop offset="0.28125" style="stop-color:rgb(92.427063%,71.188354%,22.668457%);stop-opacity:1;"/>
<stop offset="0.289063" style="stop-color:rgb(92.424011%,70.988464%,22.753906%);stop-opacity:1;"/>
<stop offset="0.296875" style="stop-color:rgb(92.420959%,70.788574%,22.839355%);stop-opacity:1;"/>
<stop offset="0.304687" style="stop-color:rgb(92.417908%,70.588684%,22.924805%);stop-opacity:1;"/>
<stop offset="0.3125" style="stop-color:rgb(92.416382%,70.388794%,23.010254%);stop-opacity:1;"/>
<stop offset="0.320313" style="stop-color:rgb(92.41333%,70.188904%,23.094177%);stop-opacity:1;"/>
<stop offset="0.328125" style="stop-color:rgb(92.410278%,69.99054%,23.179626%);stop-opacity:1;"/>
<stop offset="0.335938" style="stop-color:rgb(92.407227%,69.790649%,23.265076%);stop-opacity:1;"/>
<stop offset="0.34375" style="stop-color:rgb(92.404175%,69.590759%,23.350525%);stop-opacity:1;"/>
<stop offset="0.351563" style="stop-color:rgb(92.402649%,69.390869%,23.435974%);stop-opacity:1;"/>
<stop offset="0.359375" style="stop-color:rgb(92.399597%,69.190979%,23.521423%);stop-opacity:1;"/>
<stop offset="0.367188" style="stop-color:rgb(92.396545%,68.992615%,23.606873%);stop-opacity:1;"/>
<stop offset="0.375" style="stop-color:rgb(92.393494%,68.792725%,23.692322%);stop-opacity:1;"/>
<stop offset="0.382813" style="stop-color:rgb(92.391968%,68.592834%,23.777771%);stop-opacity:1;"/>
<stop offset="0.390625" style="stop-color:rgb(92.388916%,68.392944%,23.861694%);stop-opacity:1;"/>
<stop offset="0.392478" style="stop-color:rgb(92.385864%,68.193054%,23.947144%);stop-opacity:1;"/>
<stop offset="0.398438" style="stop-color:rgb(92.384338%,68.093872%,23.989868%);stop-opacity:1;"/>
<stop offset="0.40625" style="stop-color:rgb(92.382813%,67.993164%,24.032593%);stop-opacity:1;"/>
<stop offset="0.414063" style="stop-color:rgb(92.379761%,67.7948%,24.118042%);stop-opacity:1;"/>
<stop offset="0.421875" style="stop-color:rgb(92.378235%,67.59491%,24.203491%);stop-opacity:1;"/>
<stop offset="0.429688" style="stop-color:rgb(92.375183%,67.39502%,24.28894%);stop-opacity:1;"/>
<stop offset="0.4375" style="stop-color:rgb(92.372131%,67.195129%,24.37439%);stop-opacity:1;"/>
<stop offset="0.445313" style="stop-color:rgb(92.36908%,66.995239%,24.459839%);stop-opacity:1;"/>
<stop offset="0.453125" style="stop-color:rgb(92.366028%,66.796875%,24.545288%);stop-opacity:1;"/>
<stop offset="0.460938" style="stop-color:rgb(92.364502%,66.596985%,24.630737%);stop-opacity:1;"/>
<stop offset="0.46875" style="stop-color:rgb(92.36145%,66.397095%,24.714661%);stop-opacity:1;"/>
<stop offset="0.476563" style="stop-color:rgb(92.358398%,66.197205%,24.80011%);stop-opacity:1;"/>
<stop offset="0.484375" style="stop-color:rgb(92.355347%,65.997314%,24.885559%);stop-opacity:1;"/>
<stop offset="0.492188" style="stop-color:rgb(92.353821%,65.797424%,24.971008%);stop-opacity:1;"/>
<stop offset="0.5" style="stop-color:rgb(92.350769%,65.59906%,25.056458%);stop-opacity:1;"/>
<stop offset="0.507813" style="stop-color:rgb(92.347717%,65.39917%,25.141907%);stop-opacity:1;"/>
<stop offset="0.515625" style="stop-color:rgb(92.344666%,65.19928%,25.227356%);stop-opacity:1;"/>
<stop offset="0.523438" style="stop-color:rgb(92.341614%,64.99939%,25.312805%);stop-opacity:1;"/>
<stop offset="0.53125" style="stop-color:rgb(92.340088%,64.7995%,25.398254%);stop-opacity:1;"/>
<stop offset="0.539063" style="stop-color:rgb(92.337036%,64.601135%,25.482178%);stop-opacity:1;"/>
<stop offset="0.546875" style="stop-color:rgb(92.333984%,64.401245%,25.567627%);stop-opacity:1;"/>
<stop offset="0.554688" style="stop-color:rgb(92.330933%,64.201355%,25.653076%);stop-opacity:1;"/>
<stop offset="0.5625" style="stop-color:rgb(92.329407%,64.001465%,25.738525%);stop-opacity:1;"/>
<stop offset="0.570313" style="stop-color:rgb(92.326355%,63.801575%,25.823975%);stop-opacity:1;"/>
<stop offset="0.578125" style="stop-color:rgb(92.323303%,63.601685%,25.909424%);stop-opacity:1;"/>
<stop offset="0.585938" style="stop-color:rgb(92.320251%,63.40332%,25.994873%);stop-opacity:1;"/>
<stop offset="0.59375" style="stop-color:rgb(92.3172%,63.20343%,26.080322%);stop-opacity:1;"/>
<stop offset="0.601563" style="stop-color:rgb(92.315674%,63.00354%,26.165771%);stop-opacity:1;"/>
<stop offset="0.607522" style="stop-color:rgb(92.312622%,62.80365%,26.251221%);stop-opacity:1;"/>
<stop offset="0.609375" style="stop-color:rgb(92.311096%,62.704468%,26.293945%);stop-opacity:1;"/>
<stop offset="0.617188" style="stop-color:rgb(92.30957%,62.60376%,26.335144%);stop-opacity:1;"/>
<stop offset="0.625" style="stop-color:rgb(92.306519%,62.405396%,26.420593%);stop-opacity:1;"/>
<stop offset="0.632813" style="stop-color:rgb(92.303467%,62.205505%,26.506042%);stop-opacity:1;"/>
<stop offset="0.640625" style="stop-color:rgb(92.301941%,62.005615%,26.591492%);stop-opacity:1;"/>
<stop offset="0.648438" style="stop-color:rgb(92.298889%,61.805725%,26.676941%);stop-opacity:1;"/>
<stop offset="0.65625" style="stop-color:rgb(92.295837%,61.605835%,26.76239%);stop-opacity:1;"/>
<stop offset="0.664063" style="stop-color:rgb(92.292786%,61.405945%,26.847839%);stop-opacity:1;"/>
<stop offset="0.671875" style="stop-color:rgb(92.29126%,61.207581%,26.933289%);stop-opacity:1;"/>
<stop offset="0.679688" style="stop-color:rgb(92.288208%,61.00769%,27.018738%);stop-opacity:1;"/>
<stop offset="0.6875" style="stop-color:rgb(92.285156%,60.8078%,27.102661%);stop-opacity:1;"/>
<stop offset="0.695313" style="stop-color:rgb(92.282104%,60.60791%,27.18811%);stop-opacity:1;"/>
<stop offset="0.703125" style="stop-color:rgb(92.279053%,60.40802%,27.27356%);stop-opacity:1;"/>
<stop offset="0.710938" style="stop-color:rgb(92.277527%,60.209656%,27.359009%);stop-opacity:1;"/>
<stop offset="0.71875" style="stop-color:rgb(92.274475%,60.009766%,27.444458%);stop-opacity:1;"/>
<stop offset="0.726563" style="stop-color:rgb(92.271423%,59.809875%,27.529907%);stop-opacity:1;"/>
<stop offset="0.734375" style="stop-color:rgb(92.268372%,59.609985%,27.615356%);stop-opacity:1;"/>
<stop offset="0.742188" style="stop-color:rgb(92.26532%,59.410095%,27.700806%);stop-opacity:1;"/>
<stop offset="0.75" style="stop-color:rgb(92.263794%,59.210205%,27.786255%);stop-opacity:1;"/>
<stop offset="0.757813" style="stop-color:rgb(92.260742%,59.011841%,27.871704%);stop-opacity:1;"/>
<stop offset="0.765625" style="stop-color:rgb(92.25769%,58.811951%,27.955627%);stop-opacity:1;"/>
<stop offset="0.773437" style="stop-color:rgb(92.254639%,58.612061%,28.041077%);stop-opacity:1;"/>
<stop offset="0.78125" style="stop-color:rgb(92.253113%,58.41217%,28.126526%);stop-opacity:1;"/>
<stop offset="0.789063" style="stop-color:rgb(92.250061%,58.21228%,28.211975%);stop-opacity:1;"/>
<stop offset="0.796875" style="stop-color:rgb(92.247009%,58.013916%,28.297424%);stop-opacity:1;"/>
<stop offset="0.804688" style="stop-color:rgb(92.243958%,57.814026%,28.382874%);stop-opacity:1;"/>
<stop offset="0.8125" style="stop-color:rgb(92.240906%,57.614136%,28.468323%);stop-opacity:1;"/>
<stop offset="0.820312" style="stop-color:rgb(92.23938%,57.414246%,28.553772%);stop-opacity:1;"/>
<stop offset="0.828125" style="stop-color:rgb(92.236328%,57.214355%,28.639221%);stop-opacity:1;"/>
<stop offset="0.835938" style="stop-color:rgb(92.233276%,57.015991%,28.723145%);stop-opacity:1;"/>
<stop offset="0.84375" style="stop-color:rgb(92.230225%,56.816101%,28.808594%);stop-opacity:1;"/>
<stop offset="0.851563" style="stop-color:rgb(92.228699%,56.616211%,28.894043%);stop-opacity:1;"/>
<stop offset="0.859375" style="stop-color:rgb(92.225647%,56.416321%,28.979492%);stop-opacity:1;"/>
<stop offset="0.867188" style="stop-color:rgb(92.222595%,56.216431%,29.064941%);stop-opacity:1;"/>
<stop offset="0.875" style="stop-color:rgb(92.219543%,56.016541%,29.150391%);stop-opacity:1;"/>
<stop offset="0.882813" style="stop-color:rgb(92.216492%,55.818176%,29.23584%);stop-opacity:1;"/>
<stop offset="0.890625" style="stop-color:rgb(92.214966%,55.618286%,29.321289%);stop-opacity:1;"/>
<stop offset="0.898438" style="stop-color:rgb(92.211914%,55.418396%,29.406738%);stop-opacity:1;"/>
<stop offset="0.90625" style="stop-color:rgb(92.208862%,55.218506%,29.492188%);stop-opacity:1;"/>
<stop offset="0.914063" style="stop-color:rgb(92.205811%,55.018616%,29.576111%);stop-opacity:1;"/>
<stop offset="0.921875" style="stop-color:rgb(92.202759%,54.820251%,29.66156%);stop-opacity:1;"/>
<stop offset="0.9375" style="stop-color:rgb(92.201233%,54.60968%,29.751587%);stop-opacity:1;"/>
<stop offset="1" style="stop-color:rgb(92.199707%,54.499817%,29.798889%);stop-opacity:1;"/>
</linearGradient>
</defs>
<g id="surface1">
<g clip-path="url(#clip1)" clip-rule="nonzero">
<g clip-path="url(#clip2)" clip-rule="nonzero">
<path style=" stroke:none;fill-rule:nonzero;fill:url(#linear0);" d="M 679.667969 318.027344 L 679.667969 527.316406 L 770.722656 527.316406 L 770.722656 318.027344 Z M 679.667969 318.027344 "/>
</g>
</g>
<path style=" stroke:none;fill-rule:evenodd;fill:rgb(0%,0%,0%);fill-opacity:1;" d="M 74.734375 454.953125 C 49.660156 454.953125 29.277344 434.664063 29.277344 409.726563 L 29.277344 318.90625 C 29.277344 293.976563 49.664063 273.339844 74.734375 273.339844 C 99.792969 273.339844 120.171875 293.976563 120.171875 318.90625 L 89.765625 318.90625 C 89.765625 310.585938 83.085938 303.621094 74.726563 303.621094 C 66.371094 303.621094 59.355469 310.585938 59.355469 318.90625 L 59.355469 409.726563 C 59.355469 418.039063 66.371094 424.675781 74.726563 424.675781 C 75.21875 424.679688 75.710938 424.660156 76.199219 424.617188 C 76.691406 424.570313 77.175781 424.503906 77.660156 424.410156 C 78.140625 424.316406 78.621094 424.199219 79.089844 424.058594 C 79.5625 423.921875 80.027344 423.757813 80.480469 423.570313 C 80.9375 423.386719 81.382813 423.179688 81.816406 422.949219 C 82.25 422.71875 82.671875 422.46875 83.085938 422.195313 C 83.496094 421.925781 83.890625 421.632813 84.269531 421.324219 C 84.652344 421.011719 85.015625 420.683594 85.367188 420.339844 C 85.714844 419.992188 86.046875 419.628906 86.359375 419.25 C 86.671875 418.867188 86.964844 418.472656 87.238281 418.066406 C 87.511719 417.65625 87.765625 417.238281 87.996094 416.804688 C 88.230469 416.371094 88.441406 415.925781 88.628906 415.472656 C 88.816406 415.015625 88.984375 414.554688 89.125 414.085938 C 89.269531 413.613281 89.386719 413.136719 89.484375 412.65625 C 89.578125 412.171875 89.652344 411.6875 89.699219 411.195313 C 89.746094 410.707031 89.769531 410.21875 89.765625 409.726563 L 120.167969 409.726563 C 120.167969 434.664063 99.785156 454.953125 74.726563 454.953125 Z M 179.339844 455.550781 C 153.941406 455.550781 133.550781 437.226563 133.550781 414.367188 L 133.550781 318.804688 L 163.980469 318.804688 L 163.980469 414.367188 C 163.980469 421.890625 170.648438 428.214844 179.339844 428.214844 C 187.6875 428.214844 194.378906 421.890625 194.378906 414.367188 L 194.378906 318.804688 L 224.785156 318.804688 L 224.785156 414.367188 C 224.785156 437.226563 204.402344 455.550781 179.339844 455.550781 M 310.003906 454.441406 L 340.089844 454.441406 L 340.089844 318.914063 L 310.003906 318.914063 L 310.003906 454.449219 Z M 268.054688 327.324219 L 268.054688 318.90625 L 237.992188 318.90625 L 237.992188 454.449219 L 268.054688 454.449219 L 267.910156 365.890625 C 267.855469 347.238281 298.628906 345.828125 298.628906 345.828125 L 298.628906 318.710938 C 298.628906 318.710938 276.855469 320.792969 268.054688 327.324219 M 400.242188 346 C 391.898438 346 385.203125 352.042969 385.203125 359.554688 L 385.203125 414.304688 C 385.203125 421.839844 391.898438 428.179688 400.242188 428.179688 C 408.605469 428.179688 415.265625 421.839844 415.265625 414.304688 L 415.265625 359.5625 C 415.265625 352.042969 408.605469 346 400.242188 346 M 400.242188 455.550781 C 375.183594 455.550781 354.800781 437.207031 354.800781 414.304688 L 354.800781 359.5625 C 354.800781 336.988281 375.183594 318.632813 400.242188 318.632813 C 425.308594 318.632813 445.699219 336.988281 445.699219 359.554688 L 445.699219 414.304688 C 445.699219 437.207031 425.308594 455.550781 400.242188 455.550781 M 504.839844 373.699219 C 529.910156 373.699219 550.289063 392.058594 550.289063 414.632813 C 550.289063 437.488281 529.910156 455.863281 504.839844 455.863281 C 479.433594 455.863281 459.058594 437.488281 459.058594 414.632813 L 489.476563 414.632813 C 489.476563 422.464844 496.160156 428.464844 504.839844 428.464844 C 513.210938 428.464844 519.871094 422.464844 519.871094 414.632813 C 519.871094 407.113281 513.203125 401.09375 504.507813 401.09375 C 479.4375 401.09375 459.058594 382.71875 459.058594 360.160156 C 459.058594 337.289063 479.4375 318.929688 504.839844 318.929688 C 529.910156 318.929688 550.289063 337.289063 550.289063 360.160156 L 519.871094 360.160156 C 519.871094 352.335938 513.203125 346.328125 504.839844 346.328125 C 496.160156 346.328125 489.476563 352.335938 489.476563 360.160156 C 489.476563 367.679688 496.160156 373.699219 504.839844 373.699219 M 561.988281 454.441406 L 592.082031 454.441406 L 592.082031 318.785156 L 561.988281 318.785156 L 561.988281 454.449219 Z M 651.894531 424.09375 L 666.949219 424.09375 L 666.949219 454.429688 L 651.902344 454.429688 C 626.832031 454.429688 606.464844 434.082031 606.464844 409.0625 L 606.464844 272.683594 L 636.542969 272.683594 L 636.542969 318.785156 L 666.949219 318.828125 L 666.949219 348.375 L 636.542969 348.375 L 636.542969 409.0625 C 636.542969 417.410156 643.570313 424.089844 651.902344 424.089844 Z M 31.597656 516.667969 L 36.964844 516.667969 C 37.339844 519.605469 38.558594 522.058594 43.632813 522.058594 C 46.945313 522.058594 49.285156 520.261719 49.285156 517.5625 C 49.285156 514.867188 47.902344 513.84375 43.042969 513.0625 C 35.871094 512.125 32.476563 510 32.476563 504.515625 C 32.476563 499.726563 36.671875 496.132813 42.917969 496.132813 C 49.375 496.132813 53.226563 498.992188 53.8125 504.597656 L 48.703125 504.597656 C 48.160156 501.53125 46.351563 500.222656 42.917969 500.222656 C 39.515625 500.222656 37.757813 501.816406 37.757813 504.066406 C 37.757813 506.4375 38.769531 507.625 43.964844 508.359375 C 51.003906 509.308594 54.652344 511.265625 54.652344 517.117188 C 54.652344 522.183594 50.246094 526.152344 43.632813 526.152344 C 35.457031 526.152344 32.011719 522.183594 31.597656 516.667969 M 91.804688 500.796875 L 83.449219 500.796875 L 83.449219 496.503906 L 105.753906 496.503906 L 105.753906 500.796875 L 97.417969 500.796875 L 97.417969 525.742188 L 91.804688 525.742188 L 91.804688 500.789063 Z M 146.886719 510.035156 C 150.625 510.035156 152.59375 508.484375 152.59375 505.375 L 152.59375 505.210938 C 152.59375 501.859375 150.457031 500.710938 146.886719 500.710938 L 142.40625 500.710938 L 142.40625 510.035156 Z M 136.828125 496.496094 L 146.886719 496.496094 C 153.46875 496.496094 158.085938 499.117188 158.085938 505.085938 L 158.085938 505.253906 C 158.085938 509.839844 155.152344 512.167969 151.417969 513.105469 L 159.847656 525.742188 L 153.804688 525.742188 L 145.972656 513.921875 L 142.40625 513.921875 L 142.40625 525.742188 L 136.828125 525.742188 Z M 190.871094 496.503906 L 209.609375 496.503906 L 209.609375 500.796875 L 196.445313 500.796875 L 196.445313 508.804688 L 207.007813 508.804688 L 207.007813 512.902344 L 196.445313 512.902344 L 196.445313 521.449219 L 210.320313 521.449219 L 210.320313 525.742188 L 190.871094 525.742188 Z M 248.515625 514.535156 L 257.359375 514.535156 L 252.964844 500.957031 L 248.523438 514.535156 Z M 249.652344 496.503906 L 256.945313 496.503906 L 266.839844 525.742188 L 261.050781 525.742188 L 258.664063 518.507813 L 247.21875 518.507813 L 244.871094 525.742188 L 239.628906 525.742188 Z M 297.996094 496.503906 L 305.457031 496.503906 L 313.332031 516.464844 L 321.046875 496.503906 L 328.429688 496.503906 L 328.429688 525.742188 L 322.851563 525.742188 L 322.851563 503.65625 L 313.921875 525.742188 L 312.117188 525.742188 L 303.015625 503.65625 L 303.015625 525.742188 L 297.996094 525.742188 Z M 297.996094 496.503906 "/>
</g>
</svg>
